# xmcd
#
# Track frame offsets:
#	150
#	15622
#	42168
#	68990
#	94570
#	120870
#	138360
#	158416
#	177510
#	196054
#	211357
#	238005
#
# Disc length: 3376 seconds
#
# Revision: 1
# Processed by: cddbd v1.5.2PL0 Copyright (c) Steve Scherf et al.
# Submitted via: audiograbber 1.83.01
#
DISCID=940d2e0c
DTITLE=Bonnie and The Clydes - Wrong Side Up
DYEAR=1900
DGENRE=
TTITLE0=Rocky Mtn Town
TTITLE1=Dark Side Of The Road
TTITLE2=Take Me Home
TTITLE3=My Love Will Keep
TTITLE4=Baby You're Gone
TTITLE5=Feel The Wheels Turn
TTITLE6=Trouble Gotta Hold Of My Soul
TTITLE7=Eye To Eye
TTITLE8=Waltz For The Seasons
TTITLE9=Lovesick Blues
TTITLE10=Serve Somebody
TTITLE11=White Freight Liner Blues
EXTD=
EXTT0=
EXTT1=
EXTT2=
EXTT3=
EXTT4=
EXTT5=
EXTT6=
EXTT7=
EXTT8=
EXTT9=
EXTT10=
EXTT11=
PLAYORDER=
